Unknown *2011* [BluRay][1080p][ENG, POL]

General information:
Country: UK, Germany, France, Canada, Japan, USA  
Release: 16 February 2011
Genre: Drama, Mystery, Thriller  
Director: Jaume Collet-Serra
Screenplay: Oliver Butcher, Stephen Cornwell, Didier Van Cauwelaert (novel "Out of My Head")
Original Music: John Ottman , Alexander Rudd
Cinematography by: Flavio Martínez Labiano
Duration: 1h 53mn
Language: English, Polish
Subtitles: English, Polish
Rating: 7.1 - 10582 votes 

Cast:
Liam Neeson ...Dr. Martin Harris
Diane Kruger ...Gina
January Jones ...Elizabeth Harris
Aidan Quinn ...Martin B
Bruno Ganz ...Ernst Jürgen
Frank Langella ...Rodney Cole
Sebastian Koch ...Professor Leo Bressler 
Olivier Schneider ...Smith 
Stipe Erceg ...Jones 
Rainer Bock ...Herr Strauss 
Mido Hamada ...Prince Shada 
Clint Dyer ...Biko 
Karl Markovics ...Dr. Farge 
Eva Löbau ...Nurse Gretchen Erfurt 
Helen Wiebensohn ...Laurel Bressler 

Plot:
A man awakens from a coma, only to discover that someone has taken on his identity and that no one, (not even his wife), believes him. With the help of a young woman, he sets out to prove who he is.

Specifications:
General
Format                           : Matroska
Format version                   : Version 2
Overall bit rate                 : 9 469 Kbps

Video
Format                           : AVC
Format/Info                      : Advanced Video Codec
Format profile                   : High@L4.1
Format settings, CABAC           : Yes
Format settings, ReFrames        : 3 frames
Muxing mode                      : Header stripping
Codec ID                         : V_MPEG4/ISO/AVC
Bit rate mode                    : Variable
Bit rate                         : 8 409 Kbps
Maximum bit rate                 : 18.0 Mbps
Width                            : 1 920 pixels
Height                           : 1 080 pixels
Display aspect ratio             : 16:9
Frame rate                       : 23.976 fps

Audio 1
Format                           : AC-3
Format/Info                      : Audio Coding 3
Mode extension                   : CM (complete main)
Muxing mode                      : Header stripping
Codec ID                         : A_AC3
Bit rate mode                    : Constant
Bit rate                         : 640 Kbps
Channel(s)                       : 6 channels
Channel positions                : Front: L C R, Side: L R, LFE
Sampling rate                    : 48.0 KHz
Bit depth                        : 16 bits
Compression mode                 : Lossy
Stream size                      : 518 MiB (7%)
Title                            : English
Language                         : English

Audio 2
Format                           : AC-3
Format/Info                      : Audio Coding 3
Mode extension                   : CM (complete main)
Muxing mode                      : Header stripping
Codec ID                         : A_AC3
Bit rate mode                    : Constant
Bit rate                         : 448 Kbps
Channel(s)                       : 6 channels
Channel positions                : Front: L C R, Side: L R, LFE
Sampling rate                    : 48.0 KHz
Bit depth                        : 16 bits
Compression mode                 : Lossy
Stream size                      : 363 MiB (5%)
Title                            : Polish
Language                         : Polish

Text 1
Format                           : UTF-8
Codec ID                         : S_TEXT/UTF8
Codec ID/Info                    : UTF-8 Plain Text
Title                            : Polish_Sub
Language                         : Polish

Text 2
Format                           : UTF-8
Codec ID                         : S_TEXT/UTF8
Codec ID/Info                    : UTF-8 Plain Text
Title                            : English_Sub
Language                         : English
